<svg xmlns="http://www.w3.org/2000/svg" width="470" height="150" viewBox="0 0 124.354 39.688" id="svg1967">
    <style>
        @-webkit-keyframes rotate{50%{-webkit-transform:rotate(360deg)}}
    </style>
    <g id="layer1" transform="translate(0 -257.313)" style="-webkit-animation:rotate 4s cubic-bezier(.49,.05,.32,1.04) infinite alternate;animation:rotate 4s cubic-bezier(.49,.05,.32,1.04) infinite alternate">
        <g id="g1121" transform="matrix(.99219 0 0 .99219 125.903 130.274)" fill="#c4c6c7" stroke-width="2.024">
            <path id="rect1040" d="M-105.664 129.084h.328v37.987h-.328z"/>
            <path transform="rotate(-90)" id="rect1040-2" d="M-148.19-124.555h.303v37.987h-.303z"/>
            <path d="M-104.465 149.118a1.469 1.469 0 0 1-2.077-.002 1.469 1.469 0 0 1 0-2.077 1.469 1.469 0 0 1 2.076-.003 1.469 1.469 0 0 1 .005 2.077" id="path1057"/>
        </g>
        <g style="-webkit-animation:rotate 4s cubic-bezier(.49,.05,.32,1.04) infinite alternate;animation:rotate 4s cubic-bezier(.49,.05,.32,1.04) infinite alternate" id="g1105" transform="matrix(.99219 0 0 .99219 125.903 130.274)" stroke="#000">
            <path d="M-95.834 157.639a13.484 13.72 0 0 1-14.74 3.218 13.484 13.72 0 0 1-8.46-12.698 13.484 13.72 0 0 1 8.397-12.74 13.484 13.72 0 0 1 14.756 3.142" id="path1003" fill="none" stroke-width="2.024" stroke-opacity=".918"/>
            <path id="path1005" d="M-94.979 158.486a15.026 15.134 0 0 1-16.304 3.289 15.026 15.134 0 0 1-9.331-13.861" fill="none" stroke-width="2.024" stroke-opacity=".918"/>
            <path transform="matrix(.68763 .72607 -.70016 .71398 0 0)" id="rect1030" stroke-width="2.025" d="M41.96 179.057h.682v.191h-.682z"/>
        </g>
        <g id="g1111" transform="matrix(.99219 0 0 .99219 125.903 130.274)" stroke="#44687c">
            <path id="path1007" d="M-111.925 154.773a8.763 8.993 0 0 0 9.58 2.126 8.763 8.993 0 0 0 5.508-8.32 8.763 8.993 0 0 0-5.453-8.357 8.763 8.993 0 0 0-9.593 2.058" fill="none" stroke-width="2.024"/>
            <path d="M-112.727 155.564a10.198 10.82 0 0 0 11.06 2.336 10.198 10.82 0 0 0 6.326-9.907" id="path1009" fill="none" stroke-width="2.024"/>
            <rect ry="0" transform="matrix(.76009 .64982 -.7141 .70004 0 0)" y="191.116" x="33.273" height="1.115" width=".179" id="rect1032" stroke-width="2.028"/>
        </g>
        <text style="line-height:1.25;-inkscape-font-specification:'Lato, Normal';font-variant-ligatures:normal;font-variant-caps:normal;font-variant-numeric:normal;text-align:start" x="42.561" y="282.873" id="text2542" font-weight="400" font-size="10.583" font-family="Lato" letter-spacing="0" word-spacing="0" fill="#44687c" stroke-width=".265">
            <tspan id="tspan2540" x="42.561" y="282.873" style="-inkscape-font-specification:'Hiragino Maru Gothic Pro'" font-size="14.111" font-family="Hiragino Maru Gothic Pro" letter-spacing=".198">CNC</tspan>
        </text>
        <text style="line-height:1.25;-inkscape-font-specification:'Lato, Normal';font-variant-ligatures:normal;font-variant-caps:normal;font-variant-numeric:normal;text-align:start" x="79.717" y="282.794" id="text2546" font-weight="400" font-size="10.583" font-family="Lato" letter-spacing="0" word-spacing="0" stroke-width=".265">
            <tspan id="tspan2544" x="79.717" y="282.794" style="-inkscape-font-specification:'Hiragino Maru Gothic ProN'" font-size="14.111" font-family="Hiragino Maru Gothic ProN" letter-spacing=".542">Live</tspan>
        </text>
        <text style="line-height:1.25;-inkscape-font-specification:'Lato, Normal';font-variant-ligatures:normal;font-variant-caps:normal;font-variant-numeric:normal;text-align:start" x="44.94" y="291.781" id="text2550" font-weight="400" font-size="10.583" font-family="Lato" letter-spacing="0" word-spacing="0" fill="#c4c6c7" stroke-width=".265">
            <tspan id="tspan2548" x="44.94" y="291.781" style="-inkscape-font-specification:'Hiragino Maru Gothic Pro'" font-size="7.056" font-family="Hiragino Maru Gothic Pro" letter-spacing="-.064">video management</tspan>
        </text>
    </g>
</svg>
